<svg width="31" height="34" viewBox="0 0 31 34" fill="none" xmlns="http://www.w3.org/2000/svg">
<path d="M20.7339 16.15C20.7061 16.4874 20.5806 16.8095 20.3727 17.0767C20.1648 17.344 19.8836 17.5449 19.5634 17.6549C19.2432 17.7649 18.8978 17.7792 18.5696 17.6961C18.2414 17.613 17.9445 17.4361 17.7152 17.1869C17.4859 16.9378 17.3341 16.6273 17.2785 16.2933C17.2229 15.9593 17.2657 15.6163 17.4018 15.3063C17.538 14.9963 17.7615 14.7327 18.045 14.5476C18.3286 14.3626 18.6599 14.2642 18.9985 14.2644C19.9661 14.3055 20.7339 15.1002 20.7339 16.0735L20.7325 16.1528V16.1486L20.7339 16.15ZM12.7949 14.2658C12.3253 14.3096 11.8888 14.5268 11.5708 14.8752C11.2528 15.2235 11.076 15.6779 11.0752 16.1496C11.0743 16.6213 11.2493 17.0764 11.566 17.4259C11.8827 17.7754 12.3184 17.9943 12.7878 18.0398H12.7949C13.2617 18.0205 13.703 17.8214 14.0264 17.4842C14.3498 17.1471 14.5304 16.6979 14.5303 16.2307L14.5289 16.1514V16.1557L14.5318 16.0607C14.5318 15.0903 13.7653 14.2998 12.8048 14.263H12.802L12.7949 14.2658ZM30.7498 3.502V34C26.4672 30.2147 27.8357 31.4684 22.8618 26.843L23.7628 29.988H4.48334C3.55839 29.9854 2.67221 29.6162 2.01897 28.9614C1.36573 28.3065 0.998708 27.4194 0.998337 26.4945V3.4935C0.998333 2.56868 1.36504 1.6816 2.01805 1.02672C2.67107 0.371848 3.55711 0.00262519 4.48192 0L27.2633 0C28.1883 0.00262442 29.0745 0.371802 29.7277 1.02664C30.3809 1.68147 30.748 2.56855 30.7483 3.4935V3.502H30.7498ZM25.9047 19.618C25.8538 16.1233 24.9957 12.6877 23.3973 9.5795L23.4568 9.707C22.0952 8.63202 20.4323 8.00854 18.6996 7.92342L18.6798 7.922L18.4418 8.194C20.0709 8.636 21.4876 9.37975 22.6946 10.3686L22.6748 10.353C20.5712 9.20973 18.2137 8.61438 15.8195 8.62183C13.7044 8.62183 11.6956 9.07658 9.88509 9.894L9.97575 9.85717C9.34675 10.1462 8.97275 10.353 8.97275 10.353C10.2582 9.30526 11.757 8.55101 13.3644 8.143L13.4438 8.126L13.2738 7.922C11.5273 8.00614 9.85092 8.63477 8.47975 9.71975L8.49675 9.707C7.00642 12.5913 6.10825 15.9927 6.04875 19.5982V19.618C6.63599 20.4417 7.4169 21.1083 8.32262 21.559C9.22833 22.0096 10.231 22.2304 11.2423 22.202H11.2338C11.2338 22.202 11.8628 21.437 12.3728 20.791C11.1841 20.4892 10.1365 19.7854 9.40767 18.7992L9.39775 18.785C9.64709 18.9607 10.0608 19.1873 10.0919 19.21C11.9096 20.2084 13.9511 20.7286 16.0249 20.7216C17.6585 20.7236 19.2763 20.402 20.7849 19.7752L20.7028 19.805C21.4508 19.5188 22.0939 19.1817 22.6918 18.7808L22.6563 18.8034C21.9091 19.8082 20.8351 20.521 19.619 20.8193L19.5822 20.8264C20.0922 21.4724 20.7042 22.2034 20.7042 22.2034L20.8614 22.2048C21.8436 22.2057 22.812 21.9734 23.6868 21.5268C24.5617 21.0803 25.318 20.4324 25.8934 19.6364L25.9062 19.618H25.9047Z" fill="black"/>
</svg>
