<svg width="35" height="34" viewBox="0 0 35 34" fill="none" xmlns="http://www.w3.org/2000/svg">
<path fill-rule="evenodd" clip-rule="evenodd" d="M10.4497 0.102C12.2625 0.0185454 12.8405 0 17.4583 0C22.0762 0 22.6542 0.0200909 24.4654 0.102C26.2767 0.183909 27.5131 0.472909 28.5949 0.891727C29.7277 1.31982 30.7554 1.989 31.6054 2.85445C32.4709 3.70291 33.1385 4.72909 33.5651 5.86345C33.9854 6.94527 34.2729 8.18164 34.3563 9.98982C34.4398 11.8057 34.4583 12.3837 34.4583 17C34.4583 21.6178 34.4383 22.1958 34.3563 24.0086C34.2744 25.8168 33.9854 27.0532 33.5651 28.135C33.1385 29.2695 32.4698 30.2974 31.6054 31.1471C30.7554 32.0125 29.7277 32.6802 28.5949 33.1067C27.5131 33.5271 26.2767 33.8145 24.4685 33.898C22.6542 33.9815 22.0762 34 17.4583 34C12.8405 34 12.2625 33.9799 10.4497 33.898C8.64153 33.8161 7.40516 33.5271 6.32334 33.1067C5.18886 32.6801 4.16097 32.0114 3.31125 31.1471C2.44639 30.2981 1.7771 29.2707 1.35007 28.1365C0.931253 27.0547 0.643798 25.8184 0.560343 24.0102C0.476889 22.1943 0.458344 21.6163 0.458344 17C0.458344 12.3822 0.478434 11.8042 0.560343 9.99291C0.642253 8.18164 0.931253 6.94527 1.35007 5.86345C1.77773 4.72922 2.44753 3.70185 3.3128 2.85291C4.16131 1.98823 5.18816 1.31896 6.3218 0.891727C7.40362 0.472909 8.63998 0.185455 10.4482 0.102H10.4497ZM24.3279 3.162C22.5352 3.08009 21.9973 3.06309 17.4583 3.06309C12.9193 3.06309 12.3815 3.08009 10.5888 3.162C8.93052 3.23773 8.03107 3.51436 7.43143 3.74773C6.63862 4.05682 6.07143 4.42309 5.47643 5.01809C4.91241 5.56681 4.47835 6.2348 4.20607 6.97309C3.97271 7.57273 3.69607 8.47218 3.62034 10.1305C3.53843 11.9232 3.52143 12.461 3.52143 17C3.52143 21.539 3.53843 22.0768 3.62034 23.8695C3.69607 25.5278 3.97271 26.4273 4.20607 27.0269C4.47807 27.7641 4.91234 28.4333 5.47643 28.9819C6.02507 29.546 6.69425 29.9803 7.43143 30.2523C8.03107 30.4856 8.93052 30.7623 10.5888 30.838C12.3815 30.9199 12.9178 30.9369 17.4583 30.9369C21.9989 30.9369 22.5352 30.9199 24.3279 30.838C25.9862 30.7623 26.8856 30.4856 27.4853 30.2523C28.2781 29.9432 28.8453 29.5769 29.4403 28.9819C30.0043 28.4333 30.4386 27.7641 30.7106 27.0269C30.944 26.4273 31.2206 25.5278 31.2963 23.8695C31.3783 22.0768 31.3953 21.539 31.3953 17C31.3953 12.461 31.3783 11.9232 31.2963 10.1305C31.2206 8.47218 30.944 7.57273 30.7106 6.97309C30.4015 6.18027 30.0353 5.61309 29.4403 5.01809C28.8915 4.45411 28.2235 4.02005 27.4853 3.74773C26.8856 3.51436 25.9862 3.23773 24.3279 3.162ZM15.287 22.2406C16.4996 22.7454 17.8499 22.8136 19.1072 22.4334C20.3645 22.0532 21.4509 21.2483 22.1806 20.1562C22.9104 19.0641 23.2384 17.7524 23.1086 16.4453C22.9788 15.1383 22.3992 13.9168 21.4688 12.9895C20.8757 12.3968 20.1586 11.943 19.369 11.6607C18.5795 11.3784 17.7372 11.2746 16.9027 11.357C16.0683 11.4393 15.2625 11.7055 14.5433 12.1367C13.8241 12.5678 13.2095 13.153 12.7436 13.8501C12.2778 14.5473 11.9723 15.3391 11.8491 16.1685C11.726 16.9979 11.7883 17.8443 12.0315 18.6467C12.2748 19.4491 12.6929 20.1877 13.2558 20.8091C13.8187 21.4306 14.5124 21.9195 15.287 22.2406ZM11.2796 10.8213C12.091 10.0099 13.0543 9.36623 14.1144 8.9271C15.1746 8.48798 16.3108 8.26196 17.4583 8.26196C18.6058 8.26196 19.7421 8.48798 20.8022 8.9271C21.8624 9.36623 22.8257 10.0099 23.6371 10.8213C24.4485 11.6327 25.0921 12.5959 25.5312 13.6561C25.9704 14.7162 26.1964 15.8525 26.1964 17C26.1964 18.1475 25.9704 19.2838 25.5312 20.3439C25.0921 21.4041 24.4485 22.3673 23.6371 23.1787C21.9984 24.8174 19.7758 25.738 17.4583 25.738C15.1409 25.738 12.9183 24.8174 11.2796 23.1787C9.64092 21.54 8.7203 19.3175 8.7203 17C8.7203 14.6825 9.64092 12.46 11.2796 10.8213ZM28.1343 9.56327C28.3354 9.3736 28.4964 9.14551 28.6077 8.8925C28.7191 8.6395 28.7785 8.36673 28.7825 8.09035C28.7866 7.81396 28.7351 7.53957 28.6312 7.28343C28.5273 7.02729 28.373 6.79461 28.1776 6.59915C27.9821 6.4037 27.7494 6.24944 27.4933 6.14553C27.2371 6.04161 26.9627 5.99014 26.6864 5.99417C26.41 5.9982 26.1372 6.05765 25.8842 6.16898C25.6312 6.28032 25.4031 6.44129 25.2134 6.64236C24.8445 7.03341 24.6426 7.55282 24.6504 8.09035C24.6583 8.62787 24.8753 9.14118 25.2554 9.5213C25.6355 9.90143 26.1488 10.1184 26.6864 10.1263C27.2239 10.1341 27.7433 9.93216 28.1343 9.56327Z" fill="black"/>
</svg>
