<svg width="133" height="54" viewBox="0 0 133 54" fill="none" xmlns="http://www.w3.org/2000/svg">
<path d="M23.7152 26.6L5.59516 33.36V33.44L23.7152 40.2V44.88L2.39516 36.32V30.48L23.7152 21.92V26.6ZM53.7417 30C53.7417 34.9867 52.4084 38.8 49.7417 41.44C47.1017 44.08 43.3284 45.4 38.4217 45.4C35.5684 45.4 32.9017 45.2 30.4217 44.8V16C32.9017 15.6 35.5684 15.4 38.4217 15.4C43.3017 15.4 47.0751 16.68 49.7417 19.24C52.4084 21.7733 53.7417 25.36 53.7417 30ZM48.4217 30C48.4217 23.2533 45.1817 19.88 38.7017 19.88C37.6884 19.88 36.7684 19.96 35.9417 20.12V40.68C36.7684 40.84 37.6884 40.92 38.7017 40.92C41.9551 40.92 44.3817 40.0267 45.9817 38.24C47.6084 36.4533 48.4217 33.7067 48.4217 30ZM63.8733 20.32V27.48H75.5933V31.76H63.8733V40.48H76.3933V45H58.2733V15.8H76.3933V20.32H63.8733ZM85.8661 15.8L93.0261 39.52H93.1061L100.346 15.8H106.186L96.0261 45H90.0261L79.9061 15.8H85.8661ZM109.298 26.6V21.92L130.618 30.48V36.32L109.298 44.88V40.2L127.418 33.44V33.36L109.298 26.6Z" fill="#CC2843"/>
<path d="M51.57 12.9153L54.353 4.88528H56.003L58.797 12.9153H57.147L56.575 10.9793H53.748L53.165 12.9153H51.57ZM54.089 9.80228H56.223L55.167 6.23828H55.145L54.089 9.80228ZM61.5013 9.78028V12.9153H59.9833V4.94028C60.7313 4.83028 61.5379 4.77528 62.4033 4.77528C63.4813 4.77528 64.2879 4.97695 64.8233 5.38028C65.3586 5.77628 65.6263 6.33728 65.6263 7.06328C65.6263 7.59128 65.4833 8.05328 65.1973 8.44928C64.9186 8.84528 64.5373 9.12028 64.0533 9.27428V9.29628C64.4053 9.50162 64.7096 9.93795 64.9663 10.6053L65.8463 12.9153H64.2623L63.4263 10.6383C63.2943 10.2863 63.1439 10.0553 62.9753 9.94528C62.8066 9.83528 62.5169 9.78028 62.1063 9.78028H61.5013ZM61.5013 8.61428H62.1503C63.4556 8.61428 64.1083 8.14862 64.1083 7.21728C64.1083 6.38862 63.5033 5.97428 62.2933 5.97428C61.9926 5.97428 61.7286 5.99628 61.5013 6.04028V8.61428ZM68.6883 6.12828V8.09728H71.9113V9.27428H68.6883V11.6723H72.1313V12.9153H67.1483V4.88528H72.1313V6.12828H68.6883ZM73.2047 12.9153L75.9877 4.88528H77.6377L80.4317 12.9153H78.7817L78.2097 10.9793H75.3827L74.7997 12.9153H73.2047ZM75.7237 9.80228H77.8577L76.8017 6.23828H76.7797L75.7237 9.80228Z" fill="white"/>
</svg>
